<svg xmlns="http://www.w3.org/2000/svg" viewBox="0 0 573.3 573.3">
 
<linearGradient id="logo-gradient" x1="50%" y1="0%" x2="50%" y2="100%" > 
    <stop offset="0%" stop-color="Gold">
    <animate attributeName="stop-color" values="FireBrick; Gold; Salmon; Orange; Green; Gold; FireBrick;" dur="15s" repeatCount="indefinite"></animate></stop>
</linearGradient> 
      <path d="M405 500c4-9 2-31-4-38-4-5-114 1-114 1s-109-10-117-6c-14 7-4 43 7 55 7 8 18 12 29 15 50 13 129 9 170-3 24-7 27-18 29-24Z" fill="BurlyWood" stroke="#010101" stroke-miterlimit="10" stroke-width="5"/>
      <path d="M194 337c9-56 15-112 15-169-1-11-1-23 1-35 2-10 7-21 7-31l1-6c1-3 3-4 5-6 21-17 39-38 54-57 9-4 20 2 27 10s10 18 18 25c4 4 9 7 12 12l4 10c8 31 15 63 16 95 1 19-1 37 1 56 1 8 3 16 7 22l11 13c10 12 13 29 13 45s-3 32-3 48c0 20 6 40 9 59s9 21 0 40l-34 18c-12 8-15 13-30 15-20 1-30-2-51-4-13-1-33-7-46-7-12 0-25-11-39-10h-19c-3-1 13-91 21-143Z" fill="url(#logo-gradient)" stroke="#010101" stroke-miterlimit="10" stroke-width="5"/>
      <path d="m260 131-5-5-3-5c-2-5-3-13-1-18l2-6c1-5-4-7-6-8l-15-4c3 3 8 4 11 6l5 4a4 4 0 0 1 0 1c-7 11-4 25 4 33l8 7 8 12c-2-6-4-12-8-17ZM328 482c-2-4-5-7-6-11-2-5-1-8-2-13l-2-18c-2-26 7-43 6-74a247 247 0 0 1 3-35c1-8 0-17-1-25v-14c0-3 4-16-3-21h-7v-4c1-10 5-20 6-31l-2-31-1-26c0-9-5-18-6-27a34 34 0 0 1 0-4 40 40 0 0 1 1-8c1-9 4-17 3-26 0-6-3-11-10-13l-3-12-4-11-4-12c-1-5-1-11-4-15 0-2-2-4-3-5a23 23 0 0 0-8-7 23 23 0 0 1 6 8c1 2 3 3 3 5l2 15 4 20 2 11c1 3 1 7 4 9l4 3a5 5 0 0 1 1 0 8 8 0 0 1 1 1c1 3 1 11-1 19-2 9-4 17-2 26l4 18 2 18 2 43c0 6-3 17-5 26 0 5-2 11 0 15s6 4 10 3v2c1 6-1 8-1 15 0 11 3 23 2 34-1 9-3 16-3 26l-1 31c-1 11-6 28-6 43l5 27 4 15 8 11a37 37 0 0 1 4 4l1 5v2l1-3c0-4-2-7-4-9Z" fill="#010101"/>
      <path d="M361 380c-1-2 1-6 2-10 1-7 3-17-2-24l-6-6a10 10 0 0 1 0-2 59 59 0 0 1 0-12c1-8 4-29-6-31-3-1-5 0-8 1l-14 5 18-3a5 5 0 0 1 4 2 12 12 0 0 1 1 4c0 9-1 14-3 23 0 6-2 13 2 18 1 3 4 5 6 7a7 7 0 0 1 1 1 19 19 0 0 1 1 7 79 79 0 0 1-1 11l-1 9 3 6c2 7 2 15 3 22v3a112 112 0 0 0 2-21 23 23 0 0 0-2-10ZM299 185l-12 12-21 26a6 6 0 0 0 1 8 36 36 0 0 0 3 2h1a4 4 0 0 1 0 1 8 8 0 0 1 0 1 3 3 0 0 1-1 0 52 52 0 0 1-3 6l-8 8c-3 4-8 9-9 13l12-11 10-9c7-7 6-12 1-16l18-26 9-13 8-11-9 9ZM281 415l-13-11c-9-5-19-6-30-4-10 0-9 1-13-7-8-22-19-8-33-1 6-2 13-6 19-6h4c5 5 4 20 15 21 11 0 17-3 28-2l9 2 11 7 4 2ZM335 117c-2-2-2-5-1-8l2-10a67 67 0 0 0-5 11c-1 3-1 8 1 11a28 28 0 0 1 4 10c1 7-1 14-3 21l-1 3a26 26 0 0 0-2 4 25 25 0 0 1 2-3c9-12 14-26 3-39ZM375 510c8-2 16-8 22-12-12 1-14 3-22 5l-20 6-12 3-27 5c-6 2-16 0-26 0a222 222 0 0 0-35 2c18 1 24 3 42 5a158 158 0 0 0 29-1l23-5" fill="#010101"/>

</svg>
